<?xml version="1.0" encoding="UTF-8"?>
<svg width="700pt" height="700pt" version="1.1" viewBox="0 0 700 700" xmlns="http://www.w3.org/2000/svg">
 <g>
  <path d="m472.11 133.42-34.578-29.07-112.39 132.16-47.23-44.465-31.133 32.707 82.023 77.191z"/>
  <path d="m236.25 423.22v61.531h-20.422c-15.242 0-27.703 12.461-27.703 27.703s12.477 27.703 27.703 27.703h268.33c15.242 0 27.703-12.477 27.703-27.703 0-15.242-12.461-27.703-27.703-27.703h-20.406v-61.531zm17.5 17.5h192.5v44.031h-192.5zm240.62 71.734c0 5.5312-4.6719 10.203-10.203 10.203h-268.34c-5.5312 0-10.203-4.6719-10.203-10.203s4.6719-10.203 10.203-10.203h268.33c5.5469 0 10.219 4.6719 10.219 10.203z"/>
  <path d="m105 387.33h490c19.25 0 35-15.75 35-35v-297.5c0-19.25-15.75-35-35-35h-490c-19.25 0-35 15.75-35 35v297.5c0 19.25 15.75 35 35 35zm-17.5-332.5c0-9.6406 7.8594-17.5 17.5-17.5h490c9.6406 0 17.5 7.8594 17.5 17.5v297.5c0 9.6406-7.8594 17.5-17.5 17.5h-490c-9.6406 0-17.5-7.8594-17.5-17.5z"/>
 </g>
</svg>
